HIERARCHY
ROOT Hips
{
  OFFSET 267.745 86.9975 -272.335
  CHANNELS 6 Xposition Yposition Zposition Zrotation Xrotation Yrotation
  JOINT LeftUpLeg
  {
    OFFSET 8.64259 1.95398 -2.38835
    CHANNELS 3 Zrotation Xrotation Yrotation
    JOINT LeftLeg
    {
      OFFSET 43.7702 0 0
      CHANNELS 3 Zrotation Xrotation Yrotation
      JOINT LeftFoot
      {
        OFFSET 40.6238 0 0
        CHANNELS 3 Zrotation Xrotation Yrotation
        JOINT LeftToeBase
        {
          OFFSET 12.7242 0 0
          CHANNELS 3 Zrotation Xrotation Yrotation
          End Site
          {
            OFFSET 0 0 0
          }
        }
      }
    }
  }
  JOINT RightUpLeg
  {
    OFFSET -8.2249 1.95398 -2.59336
    CHANNELS 3 Zrotation Xrotation Yrotation
    JOINT RightLeg
    {
      OFFSET 43.5653 0 0
      CHANNELS 3 Zrotation Xrotation Yrotation
      JOINT RightFoot
      {
        OFFSET 40.6238 0 0
        CHANNELS 3 Zrotation Xrotation Yrotation
        JOINT RightToeBase
        {
          OFFSET 12.7242 0 0
          CHANNELS 3 Zrotation Xrotation Yrotation
          End Site
          {
            OFFSET 0 0 0
          }
        }
      }
    }
  }
  JOINT Spine
  {
    OFFSET 0.165834 0.87714 6.61349
    CHANNELS 3 Zrotation Xrotation Yrotation
    JOINT Spine1
    {
      OFFSET 7.38963 1.71661e-005 0
      CHANNELS 3 Zrotation Xrotation Yrotation
      JOINT Spine2
      {
        OFFSET 11.9445 1.14441e-005 0
        CHANNELS 3 Zrotation Xrotation Yrotation
        JOINT Spine3
        {
          OFFSET 14.7254 4.19617e-005 0
          CHANNELS 3 Zrotation Xrotation Yrotation
          JOINT Spine4
          {
            OFFSET 10.9679 0 0
            CHANNELS 3 Zrotation Xrotation Yrotation
            JOINT RightShoulder
            {
              OFFSET 2.46616 -1.6653 3.69651
              CHANNELS 3 Zrotation Xrotation Yrotation
              JOINT RightArm
              {
                OFFSET 13.0012 0 0
                CHANNELS 3 Zrotation Xrotation Yrotation
                JOINT RightForeArm
                {
                  OFFSET 28.7848 1.52588e-005 0
                  CHANNELS 3 Zrotation Xrotation Yrotation
                  JOINT RightHand
                  {
                    OFFSET 26.5688 1.52588e-005 0
                    CHANNELS 3 Zrotation Xrotation Yrotation
                    End Site
                    {
                      OFFSET 0 0 0
                    }
                  }
                }
              }
            }
            JOINT LeftShoulder
            {
              OFFSET 2.38034 -1.29275 -3.7523
              CHANNELS 3 Zrotation Xrotation Yrotation
              JOINT LeftArm
              {
                OFFSET 16.3182 6.10352e-005 0
                CHANNELS 3 Zrotation Xrotation Yrotation
                JOINT LeftForeArm
                {
                  OFFSET 27.0901 0 0
                  CHANNELS 3 Zrotation Xrotation Yrotation
                  JOINT LeftHand
                  {
                    OFFSET 24.5451 1.52588e-005 0
                    CHANNELS 3 Zrotation Xrotation Yrotation
                    End Site
                    {
                      OFFSET 0 0 0
                    }
                  }
                }
              }
            }
            JOINT Neck
            {
              OFFSET 5.0226 -0.0266342 0
              CHANNELS 3 Zrotation Xrotation Yrotation
              JOINT Head
              {
                OFFSET 6.69364 2.86102e-005 0
                CHANNELS 3 Zrotation Xrotation Yrotation
                End Site
                {
                  OFFSET 0 0 0
                }
              }
            }
          }
        }
      }
    }
  }
}
MOTION
Frames:	14
Frame Time:	0.0416667
-112.173 93.5497 118.557 98.0375 42.1517 87.2719 -179.088 19.9706 87.2766 -30.3837 7.59627 1.37178 57.1862 4.20451 8.98841 58.6279 -2.21382 7.87374 176.075 7.0297 92.1662 -33.5951 -4.00688 0.239613 72.559 3.08281 16.7261 24.3575 0.88197 1.64261 0.124069 8.56065 -91.0104 9.74643 -0.209924 -1.98756 -1.92599 -0.29717 -1.97641 -24.4493 0.397008 -1.95879 -4.43662 0.396998 -1.9588 98.3178 -57.791 -87.637 17.8929 -9.24923 -12.1379 -2.48153 -15.257 -21.1546 -10.7142 -0.625049 1.66663 -82.3542 -56.3779 90.5043 -26.117 -0.694332 -15.9334 -3.39197 48.1168 -0.432244 -0.624043 -0.114887 -5.98316 2.21755 2.67137 -0.563675 -25.3828 0.998745 9.23291 
-106.366 93.3681 113.166 96.3779 41.9082 88.9567 -178.718 22.5927 87.983 -8.43304 7.25792 0.451493 51.7311 -2.71264 5.63765 47.6814 -1.95903 3.04656 175.922 1.90156 92.613 -31.3357 -3.36281 -0.0300856 73.459 2.12305 17.4361 30.2216 -0.58725 3.00383 0.388759 8.56718 -91.0228 9.73787 0.312197 -2.0532 -1.93468 0.221569 -2.06496 -24.4589 0.914746 -1.86457 -4.4463 0.914743 -1.86457 97.5014 -57.3814 -88.8265 16.7068 -10.2467 -14.8897 -2.70484 -14.1953 -22.9747 -11.734 -0.662971 1.43418 -81.8264 -56.708 91.2709 -24.955 -0.701345 -10.8074 -2.16975 47.3078 -2.84203 -0.202878 -0.142138 -7.09517 1.08932 2.15547 0.167955 -23.8157 0.651119 8.3919 
-99.9309 91.5707 107.507 94.9757 40.2912 90.4948 -178.683 28.5424 89.7315 -5.27459 5.79675 0.525576 56.552 -2.58858 5.17067 48.834 -2.00524 3.91968 176.195 -1.85965 93.2327 -33.2323 -3.92157 -0.937879 76.555 -0.71771 16.1984 38.2275 -2.34356 3.23955 0.75352 8.62172 -90.9594 9.63614 1.06902 -1.98423 -2.03597 0.980663 -2.02934 -24.5663 1.61587 -1.57134 -4.55361 1.61586 -1.57135 96.0706 -57.3012 -90.8723 15.1072 -13.0471 -17.8404 -3.26635 -13.4235 -25.6672 -12.9632 -0.710913 1.21556 -81.0683 -57.1448 92.3607 -24.7219 -0.727457 -6.01454 0.44173 44.1275 -7.15301 -0.122469 -0.12831 -6.29712 0.20706 1.91693 1.56231 -22.3281 0.550626 7.03278 
-92.7617 89.339 101.172 92.2584 38.3452 91.6988 -179.272 31.8021 91.0415 -6.48043 7.39805 0.919633 54.8409 -2.15989 6.90295 49.4647 -2.06965 3.65412 176.205 -5.11174 92.2857 -34.9629 -5.12391 -2.3532 76.9483 -0.959393 17.1094 47.0616 -4.3938 1.97407 1.07956 8.68758 -90.6578 9.50913 1.85615 -1.44759 -2.1614 1.79064 -1.52789 -24.7046 2.20536 -0.822687 -4.69194 2.20535 -0.822689 95.1143 -57.5519 -92.2045 13.0036 -18.0813 -22.631 -4.31095 -12.6978 -29.394 -13.0637 -0.690559 0.990256 -80.5956 -57.6057 93.0447 -25.0888 -1.46208 -3.48866 1.13631 43.1585 -7.79172 0.0897142 -0.142499 -6.77938 1.00596 1.77644 1.60381 -20.5516 0.486713 7.12596 
-85.2271 87.2627 93.815 86.9395 41.0781 92.6382 -179.653 39.5367 88.2989 -19.3648 7.52019 -0.0269237 49.6345 -5.0455 7.73717 48.9944 -1.98225 4.6905 175.537 -6.98822 89.6362 -35.0672 -6.45554 -2.93259 70.6251 2.41412 19.3978 57.7569 -6.60284 3.02914 1.12747 8.66258 -90.0574 9.55432 2.22204 -0.287895 -2.11477 2.20723 -0.385467 -24.6651 2.20579 0.39357 -4.65245 2.20579 0.393565 96.2371 -58.3452 -90.5341 14.5384 -20.7689 -25.6208 -5.57222 -11.2328 -33.54 -15.6635 -0.920285 1.59866 -81.5225 -55.1032 91.5997 -27.2775 -2.38477 -3.43813 -0.131441 43.3988 -5.14691 0.650474 -0.167742 -7.33117 5.87289 0.793918 0.777509 -21.1127 -0.166112 5.472 
-77.6575 85.5587 86.8165 82.5786 46.5591 92.2808 -175.928 45.9409 81.4252 -36.6506 13.5684 -2.55368 52.5657 -2.7877 14.913 45.7101 -1.947 -1.74502 172.215 -5.1816 85.433 -40.8145 -4.02886 -1.11405 54.7392 8.77697 24.1599 55.7107 -4.81278 11.8845 1.23395 9.31645 -89.49 8.23098 2.68701 0.849158 -3.43739 2.7218 0.729983 -25.9878 2.30755 1.61778 -5.97514 2.30756 1.61777 95.8527 -56.8967 -91.2255 16.9183 -21.521 -26.9097 -4.35077 -6.05754 -38.7244 -17.411 -1.00686 1.53846 -82.7488 -53.1855 89.689 -28.5004 -2.50171 -8.35978 -0.968745 36.2324 -3.42089 1.54497 -0.265322 -9.47783 15.4192 -1.8453 3.48827 -21.5019 -2.69824 -0.392549 
-69.6786 83.5734 79.4026 80.8386 52.0929 92.8766 -173.629 46.4584 77.0572 -51.7401 16.5896 -2.46561 62.5723 7.82123 19.9125 46.7727 -1.99946 0.22486 169.931 6.23234 84.0866 -66.091 -10.5359 -0.0668113 55.663 5.16959 10.6756 54.6784 -6.71292 -2.14833 0.985378 9.96653 -89.4314 6.92963 2.21165 1.0286 -4.73976 2.25477 0.930233 -27.2825 1.80027 1.64583 -7.26984 1.80028 1.64584 95.6997 -56.8431 -91.4493 16.2308 -21.2027 -33.3372 -5.69091 -10.0177 -35.6762 -18.4086 -1.033 1.33015 -84.8506 -54.0104 86.7211 -26.5635 -0.490961 -9.92674 -1.06348 24.4958 -7.10925 4.75963 -0.443846 -10.0687 17.5478 -3.89858 4.33155 -18.9379 -4.76099 -2.18758 
-61.8463 82.0874 71.8085 83.1358 54.5789 89.6978 -175.586 41.0298 74.9692 -59.6405 18.041 -0.994524 65.1988 14.797 29.4317 53.1401 -2.44449 2.71905 172.649 29.0663 87.0001 -85.8283 -2.31021 -2.63604 69.5706 -1.88319 13.7215 58.2185 -7.30697 -0.0977209 0.830077 10.604 -89.4655 5.65247 1.8817 1.00187 -6.01745 1.924 0.918056 -28.5567 1.49364 1.52111 -8.5441 1.49364 1.52112 93.7421 -55.2546 -94.481 15.5949 -15.3577 -42.0613 -0.54282 -8.25612 -28.27 -19.483 -0.977085 0.587969 -87.9461 -56.5593 82.6642 -18.1791 1.39851 -21.6789 -2.82122 20.5773 -7.7349 7.26245 -0.525834 -9.46477 20.9974 -5.32833 4.25228 -16.7498 -6.49024 -0.337087 
-54.3335 82.1912 64.6855 91.2823 60.1224 87.0301 179.266 31.1887 79.879 -64.8892 21.4519 1.92841 65.6656 18.334 33.5814 60.4606 -2.41414 6.95309 177.154 48.5963 85.2452 -76.5649 2.01869 -2.6356 74.8311 -4.0114 13.7385 59.0243 -7.34406 0.765586 0.511709 10.8811 -90.1809 5.11887 0.948117 -0.377477 -6.55177 0.930598 -0.41885 -29.0901 1.01774 -0.0750488 -9.07744 1.01774 -0.0750541 93.6436 -48.5527 -95.6874 14.2614 -4.30074 -57.1493 1.63418 -9.30316 -18.6945 -17.1312 -0.743403 -0.133821 -89.6759 -50.2499 79.0092 -9.67069 -2.6482 -42.2072 -0.585189 21.0409 -10.6684 12.8483 -0.543666 -7.84289 21.7847 -6.49238 0.617522 -17.5417 -6.87872 3.30372 
-45.0895 84.0102 56.7096 97.6999 68.7342 86.0999 173.521 20.4435 87.6042 -66.6613 25.0844 6.39939 67.5076 18.5031 28.9149 65.012 -1.55519 12.3475 -175.08 57.5857 73.3361 -48.3008 -6.45348 -1.33766 62.5016 5.81005 20.3079 52.5407 -5.58613 2.25733 0.289497 10.4472 -90.8806 5.97784 0.208317 -1.73772 -5.69427 0.131639 -1.74522 -28.2214 0.720876 -1.59485 -8.20875 0.720876 -1.59486 96.6187 -35.5882 -92.6498 10.5557 10.9209 -64.3964 1.15672 -7.28151 -14.1609 -11.118 -0.404942 -0.983587 -89.5241 -39.5834 76.7851 -5.7402 -12.0255 -63.9429 9.27102 21.0586 -25.137 15.1885 -0.55573 -7.38103 19.5796 -9.49342 -5.35396 -20.6116 -8.00769 3.14371 
-32.571 91.1785 44.4103 91.2856 78.9079 96.9693 176.64 7.01689 99.7398 -49.6208 32.9385 12.6643 62.1023 7.0629 10.0172 65.3928 -2.21922 8.32451 -177.818 62.1303 66.1087 -42.1837 -7.31029 1.72782 53.889 9.6011 20.8212 30.9565 -0.507923 1.43784 -0.293346 9.31366 -91.5532 8.21553 -1.26682 -2.99722 -3.45814 -1.39744 -2.93864 -25.9658 -0.308033 -3.23912 -5.95316 -0.30803 -3.23913 98.574 -26.4664 -90.0196 -5.13334 20.8216 -52.199 -0.77963 -7.50614 -20.4743 -8.76192 -0.21695 -2.37389 -87.0758 -30.5828 78.864 -9.12314 -19.3804 -74.5947 26.6483 15.0757 -55.9373 12.2055 -0.563699 -7.88525 10.4929 -11.1434 -7.81253 -20.2802 -9.19065 0.411181 
-18.1128 101.621 27.8548 65.266 82.1979 119.898 -170.566 -4.72888 109.224 -19.9409 28.0295 8.82571 28.6784 -14.0433 -19.242 47.1128 -2.90568 3.51446 178.993 58.6835 62.1213 -34.6563 -7.73142 2.92839 44.8213 13.4814 22.6616 12.1099 4.55812 -1.54795 -0.863168 8.04861 -91.4267 10.7422 -2.3766 -2.62563 -0.929009 -2.48983 -2.51853 -23.4508 -1.47808 -3.21803 -3.43814 -1.47808 -3.21803 99.3092 -23.8568 -88.6525 -12.6797 25.4589 -37.7111 2.01044 1.63734 -20.2724 -7.21592 -0.0688876 -4.64073 -85.0006 -31.7464 83.0867 -6.60978 -26.7782 -67.4353 30.955 4.1376 -79.1396 23.9757 0.0216642 -4.89036 -2.75702 -9.986 -9.34425 -19.579 -8.73881 -1.24184 
-3.99923 106.168 12.893 90.6853 86.9964 90.6074 -176.359 -6.60655 109.414 -48.0554 28.3943 13.1014 39.9909 -9.75759 -11.8851 29.9824 -1.12916 10.2811 174.709 47.5222 60.7707 -24.3331 -2.56898 2.5051 41.3279 14.6703 21.5507 13.9477 4.80804 -4.6362 -0.916357 8.11103 -91.1469 10.6277 -2.35238 -2.06167 -1.04265 -2.44082 -1.95614 -23.574 -1.62427 -2.67311 -3.56135 -1.62427 -2.6731 100.169 -21.2429 -86.9214 -26.3802 16.5469 -10.8985 5.48877 13.214 -9.2149 -5.05953 0.071046 -7.57754 -82.1014 -27.3524 88.0897 8.28827 -34.0384 -42.3744 33.1289 9.6439 -70.1787 24.5901 0.239859 -3.01792 -11.002 -10.7603 -11.8199 -14.3442 -10.0718 -2.7573 
10.7076 104.306 -2.67393 119.258 87.8595 58.4196 176.821 -7.71992 107.443 -71.4816 21.9181 12.3285 42.3239 -9.15911 -6.82637 27.7883 -0.880475 7.88226 172.172 34.6526 61.4053 -8.23415 6.63599 0.92311 30.9114 17.4004 29.3368 24.2209 1.49865 -2.68982 -0.960113 8.2591 -90.924 10.337 -2.33552 -1.63275 -1.33275 -2.40511 -1.52836 -23.8701 -1.73696 -2.25912 -3.85741 -1.73696 -2.25912 100.743 -24.9442 -85.3354 -26.8679 0.0782197 16.5243 5.59035 -2.23179 0.00304035 -5.43559 -0.0448316 -4.67841 -80.2401 -19.9974 91.2414 19.4822 -16.9536 -6.85586 12.9164 21.0109 -29.7934 15.9589 -0.0594712 -4.17738 -13.8469 -11.3146 -11.9041 -11.0774 -10.9789 -3.49741 
